<svg width="24px" height="24px" viewBox="0 0 24 24" fill="none" xmlns="http://www.w3.org/2000/svg">
    <path fill-rule="evenodd" clip-rule="evenodd" d="M12 2C9.79086 2 8 3.79086 8 6C8 8.20914 9.79086 10 12 10C14.2091 10 16 8.20914 16 6C16 3.79086 14.2091 2 12 2ZM6 6C6 2.68629 8.68629 0 12 0C15.3137 0 18 2.68629 18 6C18 9.31371 15.3137 12 12 12C8.68629 12 6 9.31371 6 6ZM3.11787 18.0054C2.44468 18.5946 2 19.4287 2 20.3431V21.25C2 22.2165 2.7835 23 3.75 23H20.25C21.2165 23 22 22.2165 22 21.25V20.3431C22 19.4287 21.5553 18.5946 20.8821 18.0054C19.6608 16.8982 17.7956 16 15.75 16H8.25C6.20435 16 4.33916 16.8982 3.11787 18.0054ZM8.25 14C5.32059 14 2.84315 15.3546 1.32853 17.0358C0.483689 17.931 0 19.1167 0 20.3431V21.25C0 23.3211 1.67893 25 3.75 25H20.25C22.3211 25 24 23.3211 24 21.25V20.3431C24 19.1167 23.5163 17.931 22.6715 17.0358C21.1569 15.3546 18.6794 14 15.75 14H8.25Z" fill="white"/>
</svg>
